<?xml version="1.0" encoding="UTF-8" standalone="no"?>
<svg width="265px" height="258px" viewBox="0 0 265 258" version="1.1" xmlns="http://www.w3.org/2000/svg" xmlns:xlink="http://www.w3.org/1999/xlink">
    <!-- Generator: Sketch 41 (35326) - http://www.bohemiancoding.com/sketch -->
    <title>Pattern 1</title>
    <desc>Created with Sketch.</desc>
    <defs></defs>
    <g id="Business-Plan" stroke="none" stroke-width="1" fill="none" fill-rule="evenodd">
        <g id="Pattern-1">
            <rect id="Background" fill="#F9F9F9" x="0" y="0" width="265" height="258"></rect>
            <path d="M103.226769,208.143802 L103.58169,207.543089 C100.715014,203.856899 98.721991,204.211865 96.483253,201.617879 C98.2851641,199.160419 106.939797,197.194451 104.346138,194.791601 C101.697874,195.8565 98.121354,199.160419 94.7359453,200.198014 C93.0705427,199.215029 88.6203684,193.945142 87.1733792,196.457213 C88.0470331,197.958994 91.8965703,199.651911 93.125146,201.508659 C91.8419669,202.273202 85.9175018,206.642021 86.7365523,207.406564 C87.6375078,208.334938 93.5346713,203.420017 94.7359453,202.600864 C96.7835715,203.747678 101.397556,208.171107 103.226769,208.143802 L103.226769,208.143802 Z M91.4597434,171.227287 C91.4324417,172.346797 90.4495811,172.401407 89.084497,170.926931 C90.203866,170.490049 91.2959333,169.234014 91.4597434,171.227287 L91.4597434,171.227287 Z M87.9924297,170.845016 C88.565765,171.746084 89.084497,172.565238 89.6305307,173.520917 C91.2413299,172.974815 91.8965703,172.565238 92.7156208,171.582254 C92.2514922,170.571964 91.6235535,169.206709 90.6679946,168.742522 C89.9035475,169.179404 88.4019549,170.135083 87.9924297,170.845016 L87.9924297,170.845016 Z M94.1899117,162.653481 C95.6642025,161.807023 96.5651581,160.714818 95.1181689,159.185732 C92.8248275,159.376868 92.3060956,161.533972 94.1899117,162.653481 L94.1899117,162.653481 Z M97.6299237,170.326218 C98.9950078,171.800695 99.9778684,169.58898 100.605807,168.30564 C97.5207169,165.711654 96.2648395,168.851742 97.6299237,170.326218 L97.6299237,170.326218 Z M100.414695,188.156458 C99.5956448,189.740155 97.8483371,191.296546 95.3365823,192.497971 L91.3778383,188.566035 C92.1149838,187.228084 93.7257831,184.388352 94.1080066,182.995791 C93.9441965,182.176638 93.8349898,180.838687 93.6165763,180.15606 C96.1010294,180.565636 100.00517,185.698998 100.414695,188.156458 L100.414695,188.156458 Z M92.7975258,178.353922 C91.8146653,178.408532 92.442604,180.838687 92.6064141,182.067418 C92.1149838,185.562472 89.1117987,187.391915 89.8489441,189.194052 C89.9854525,189.985901 94.1899117,194.736991 94.4902302,194.846211 C95.3911857,195.201178 102.43502,190.095121 102.462322,188.074543 C101.151841,185.289421 96.3194429,177.616684 92.7975258,178.353922 L92.7975258,178.353922 Z" id="Fire-1" fill="#EBBA00"></path>
            <path d="M50.8703807,12.1452368 C50.8157774,12.1725419 45.4646476,18.3161927 48.0310057,18.9988205 L51.3891127,13.9473744 C55.0202365,14.9303585 54.9383314,17.3878188 57.1497677,17.8247006 C58.4329468,16.7598011 59.9618411,14.3569511 61.2177185,13.9200693 C64.4939204,18.3434978 64.958049,17.8520057 69.9542569,13.1009158 C72.2475983,14.1385102 73.1212521,17.3059034 75.1415766,17.3605137 L78.5815886,12.9370851 C79.6736559,13.6470181 80.0558795,14.0838999 81.1479468,15.5856812 C81.9396956,16.6778858 82.7314444,17.688175 84.233037,17.6335648 C84.6698639,16.2136989 80.9295333,12.1725419 80.2469913,11.8175754 C76.2336439,9.74238675 77.8717449,13.4831874 74.6501463,15.0395789 C73.7764925,14.5207818 72.957442,13.4558823 72.2202966,12.664034 C68.7256812,8.67748729 67.5244072,14.2204255 64.5212221,15.2307147 C63.4564564,14.1385102 62.3916908,11.8175754 60.398668,12.0906266 C59.3885057,12.2271522 59.3066007,13.1282209 58.6513603,13.9473744 C58.1326283,14.575392 57.5046896,15.1487994 57.0132593,15.6949017 C55.0202365,14.5480869 53.1637221,11.8448806 50.8703807,12.1452368 L50.8703807,12.1452368 Z" id="Wave-2" fill="#EBBA00"></path>
            <path d="M247.963239,69.7928178 C247.996573,69.7611772 248.063239,69.8877397 248.063239,69.8877397 L247.963239,69.7928178 L247.963239,69.7928178 Z M223.419027,70.2290038 C220.688858,67.3346617 219.050757,73.1506511 217.740277,75.6627216 C219.569489,76.1269085 220.907272,72.4680232 221.780926,71.0481573 C223.664742,71.5942596 223.582837,74.5159068 225.930782,75.1712295 C227.541581,74.1609403 228.278726,71.4850391 229.725715,70.9116317 C231.118101,71.6761749 231.200006,72.3041925 231.90985,73.0687357 C234.940337,76.4545699 234.99494,70.8024112 238.680667,70.2016987 C238.980986,70.7204959 240.919405,73.8059738 241.301629,73.9698045 C242.803221,74.6251273 245.642596,71.2939033 247.116887,70.747801 C247.935938,72.4407181 248.700385,73.9424994 250.174676,74.4339915 C252.167699,73.2871767 253.095956,71.9765312 254.62485,70.4201396 C256.153744,70.993547 257.136605,73.5056176 258.501689,73.2052613 C260.440108,72.7683795 257.819147,70.9389368 257.273113,70.3655294 C256.563269,69.6555964 255.580409,68.344951 254.62485,68.12651 C253.314369,68.9729686 252.03119,71.1846828 249.819754,72.413413 C249.328324,71.1027675 248.345463,69.30063 246.980379,68.9456635 C246.35244,68.9729686 244.0864,71.7853954 241.929568,72.3314976 L240.782897,70.5566652 C238.40765,67.1162208 238.216539,67.7988487 236.824153,69.2733248 C235.813991,70.3109192 234.50351,71.8400056 233.329538,72.5499386 C232.810806,71.7853954 232.182867,71.3212084 231.691437,70.5839703 C228.688251,66.0513213 227.869201,72.1403618 225.521256,73.0687357 L223.419027,70.2290038 L223.419027,70.2290038 Z" id="Wave-1" fill="#EBBA00"></path>
            <path d="M164.540086,15.0226865 C167.188349,16.114891 170.874076,20.0468275 171.58392,21.6851344 C172.129954,21.9854906 173.112814,21.6305241 173.112814,21.1663372 C172.949004,20.1833531 168.99026,16.0056706 168.089305,15.5960939 C169.099467,14.8315507 170.355344,15.2957376 171.392808,14.4492791 C171.474713,13.6847359 170.655663,12.1556495 169.672802,11.3091909 C166.806125,8.82442551 165.987075,5.35667599 163.830242,2.35311341 C163.120398,1.34282418 162.001029,0.00487357557 160.990867,2.1346725 C160.581342,2.98113104 151.844803,16.0602808 154.520368,14.7223302 C155.20291,14.3673637 157.933079,9.88932497 158.424509,9.20669711 L162.110236,2.78999524 C163.256907,3.44531798 163.420717,4.26447142 164.021354,5.46589645 C165.768661,8.9882562 168.526131,12.1829546 169.754707,13.6301256 C167.652478,14.5584995 165.522946,13.1659387 164.540086,15.0226865 L164.540086,15.0226865 Z M160.963565,41.8090037 C160.990867,43.4200054 160.117213,46.423568 161.891823,45.959381 C162.98389,45.6590248 162.738175,42.1639701 162.628968,40.8806298 C162.246744,35.7472683 162.628968,30.2589403 162.765476,25.0982737 C165.441041,24.4429509 169.126768,24.6613918 172.020747,24.7433072 C172.348367,21.8216599 163.584527,23.4326617 161.755314,23.514577 C158.724827,23.7876282 153.018776,23.5418822 152.199725,24.8798328 C152.554647,25.3713248 153.373698,25.4532402 154.028938,25.4532402 C155.830849,25.4532402 159.380068,25.3167146 161.072772,25.0436634 L160.963565,41.8090037 L160.963565,41.8090037 Z M157.851174,16.2514166 C157.769268,16.7975189 154.411161,21.4393883 153.619413,22.1493213 C151.680993,23.9241538 153.400999,23.8695435 154.083541,23.5964924 C155.339419,23.1323054 159.871498,16.5517729 160.171817,15.5141785 C159.461973,14.203533 158.752129,14.3400586 157.359743,14.5858046 C155.885452,14.8315507 154.411161,14.7496353 154.192748,16.0056706 C154.71148,16.3060268 156.841011,16.114891 157.851174,16.2514166 L157.851174,16.2514166 Z" id="Tree-2" fill="#EBBA00"></path>
            <path d="M237.554864,226.607753 C237.500261,225.105972 236.298987,225.761294 234.851997,225.133277 C235.452634,222.948868 237.937087,218.306998 239.165663,215.084995 C239.575188,215.27613 245.11743,223.522275 245.581559,224.751005 C245.062827,225.133277 243.151709,226.00704 242.769485,226.607753 C243.752346,227.590737 247.8749,231.959555 248.257124,232.806014 C244.407586,233.597862 237.281847,233.543252 233.405008,233.707083 C233.92374,231.249622 236.954227,228.464501 237.554864,226.607753 L237.554864,226.607753 Z M240.066619,234.963118 C240.394239,237.91207 239.493283,252.329171 241.86853,252.383781 C242.987899,250.690864 241.431703,238.458172 241.895831,235.45461 C244.680603,234.990423 247.656487,235.290779 250.30475,234.198575 C252.133962,233.379421 245.909179,227.317686 245.199335,226.607753 C245.963782,225.679379 247.847598,225.84321 247.301565,224.614479 C246.209497,222.921562 240.448842,212.654839 239.165663,213.146331 C237.745976,213.665129 235.125014,220.819069 233.896438,222.894257 C232.121829,225.95243 231.630399,226.607753 235.316126,226.935414 C234.988506,228.546416 233.705327,229.638621 232.913578,231.003876 C228.845627,237.884765 234.879299,235.263474 240.066619,234.963118 L240.066619,234.963118 Z" id="Tree-1" fill="#EBBA00"></path>
            <path d="M15.2450673,136.111131 C15.5453858,136.657234 17.674917,158.965512 17.7568221,160.412683 C15.8184026,160.576514 4.48820431,161.177226 2.68629326,160.139632 C4.92503123,154.705914 14.6717319,136.384182 15.2450673,136.111131 L15.2450673,136.111131 Z M19.0673029,162.187515 C20.0228618,159.074732 16.9650733,141.326408 17.0469783,138.049794 C19.5314315,143.401597 29.3327355,163.33433 30.069881,162.269431 C30.9435348,160.467293 20.1047668,142.637054 18.2209507,137.176031 C16.5828497,133.38062 16.5009447,135.100842 18.6304759,130.97777 C18.9580961,130.349752 19.1765096,129.612514 18.9853978,128.957191 C16.992375,128.793361 16.8012632,130.895854 15.8457043,132.097279 C14.5898269,130.458973 13.0609327,127.428105 12.0234687,125.653272 C10.1396526,126.554341 14.234905,132.233805 14.6171286,133.708281 C14.0437932,133.981332 0.829778834,159.457004 0.0653317198,161.696023 C-0.0438750109,161.969075 0.0107283544,161.777939 0.0380300371,162.242126 L19.0673029,162.187515 L19.0673029,162.187515 Z" id="Tipi-1" fill="#EBBA00"></path>
            <path d="M99.5717687,106.45242 C95.3400079,106.943912 89.7704646,107.162353 84.746955,106.698166 C86.8218829,101.428279 93.3469851,90.0966563 96.0498516,83.5980391 C97.824461,85.1544306 99.6809754,103.694603 99.5717687,106.45242 L99.5717687,106.45242 Z M91.545074,71.8568399 C92.4187278,74.4508258 96.623187,78.7650338 95.4219129,81.4409351 C94.7939742,82.9154112 82.3171053,107.380794 82.2898036,107.68115 C84.5831449,109.592508 96.5139802,108.309168 100.691138,108.309168 C102.493049,107.490014 98.5616064,87.6118909 98.1793829,84.8267692 C98.3158913,84.9632948 102.52035,93.6463212 103.066384,94.7658309 C103.585116,95.8307303 103.940038,96.2130019 104.404167,97.1413758 C105.223217,98.9435134 108.635927,105.715182 109.154659,107.380794 C109.755296,107.244268 110.164822,107.189658 110.656252,106.834691 C110.62895,106.725471 107.188938,98.9708185 106.834016,98.0970548 L98.2066846,81.6047657 C97.742556,80.4033407 97.824461,80.3760356 98.3704947,79.2565259 C98.861925,78.1643213 101.482886,73.6316724 100.609233,72.8125189 C99.025735,72.0206706 98.4523997,75.9526071 97.0327122,78.4373725 C95.6403264,76.0345224 93.5927002,70.7646353 91.545074,71.8568399 L91.545074,71.8568399 Z" id="Tipi-2" fill="#EBBA00"></path>
            <path d="M173.486775,138.50571 C173.841696,145.004327 175.152177,152.840895 176.571865,161.605837 C173.350266,161.032429 165.023253,161.878888 161.255621,161.824277 C161.337526,160.813988 173.459473,138.50571 173.486775,138.50571 L173.486775,138.50571 Z M174.851859,136.621657 C176.517261,142.273816 179.110921,144.949717 180.749022,148.827043 C182.141408,152.103657 190.331913,168.51403 189.403656,161.687752 C189.212544,160.377106 177.718535,138.66954 176.271546,135.884419 C174.38773,132.198228 180.694419,129.495022 179.766162,126.382239 C177.855044,126.491459 175.725513,130.641837 174.169317,132.116313 C173.541378,130.805668 171.411847,126.54607 169.691841,127.692884 C170.6474,130.505311 173.241059,133.645399 173.322964,134.300722 C173.486775,136.020944 160.928001,158.083477 159.098788,160.923209 C155.767983,165.182806 177.63663,163.517195 178.237267,163.025702 C179.465843,162.015413 173.841696,137.795777 174.851859,136.621657 L174.851859,136.621657 Z" id="Tipi-3" fill="#EBBA00"></path>
        </g>
    </g>
</svg>