<?xml version="1.0" encoding="UTF-8" standalone="no"?>
<svg width="265px" height="258px" viewBox="0 0 265 258" version="1.1" xmlns="http://www.w3.org/2000/svg" xmlns:xlink="http://www.w3.org/1999/xlink">
    <!-- Generator: Sketch 41 (35326) - http://www.bohemiancoding.com/sketch -->
    <title>Pattern 2</title>
    <desc>Created with Sketch.</desc>
    <defs></defs>
    <g id="Business-Plan" stroke="none" stroke-width="1" fill="none" fill-rule="evenodd">
        <g id="Pattern-2">
            <rect id="Background" fill="#F9F9F9" x="0" y="0" width="265" height="258"></rect>
            <path d="M106.510499,111.146283 C105.966563,111.938399 99.4393424,116.691095 99.928884,116.827666 C100.636,118.329955 103.382872,115.84435 104.198774,115.134177 C108.985403,110.955083 107.571172,111.555998 111.623488,114.424004 C112.684162,115.188806 114.044,116.117493 115.349444,116.144808 L115.866182,115.352692 C114.071196,113.76846 111.324324,112.266171 109.502142,110.599996 C111.677882,108.223648 114.343164,106.338959 116.491708,104.563527 C117.3892,103.361695 118.014726,103.38901 116.491708,102.159864 C114.533541,104.345012 109.420551,108.633364 107.951927,109.835195 C105.776186,107.950505 101.968641,105.683415 99.5481294,103.935297 C96.8012572,106.175073 105.205054,109.234279 106.510499,111.146283 Z M106.102547,85.2249721 C105.259448,85.6346872 100.88077,97.106711 101.315918,97.8168839 C101.506296,98.1992847 107.951927,103.853354 108.223894,103.880668 C108.550255,103.907982 115.893379,97.6803122 114.968689,94.5391628 C114.424754,92.7637306 110.154864,91.2887561 108.686239,90.9336696 C108.441468,89.7045242 106.728073,85.935145 106.102547,85.2249721 Z M113.228097,94.3479624 C113.608852,97.0793967 109.230174,101.340434 108.278288,101.859407 C107.407991,101.121919 103.138101,97.6256835 102.702953,97.1886541 C103.110904,95.4951648 104.878693,90.0596107 105.748989,88.6938936 C106.401712,90.3873828 107.108827,90.960984 107.516779,92.080872 C108.903813,92.6817876 111.487505,93.7470469 113.228097,94.3479624 Z M111.18834,80.1718187 C110.562815,80.6088482 109.09419,81.6741076 109.610929,82.4935378 C110.671602,84.2689701 111.10675,83.8592549 112.03144,82.5754809 C111.922653,82.0018797 111.460308,80.4995908 111.18834,80.1718187 Z M105.667399,76.129296 C102.050231,73.2066614 102.648559,76.6755829 104.035594,78.4510151 C105.041874,78.1778717 105.422628,77.1399267 105.667399,76.129296 Z" id="Fire-1" fill="#EBBA00"></path>
            <path d="M233.067636,68 C231.517421,68.4370295 228.770549,73.1350964 229.01532,74.6100709 C230.810306,74.8012713 230.946289,72.3429804 232.550898,70.1578331 C234.264293,70.6768056 235.923296,75.019786 237.011166,75.1836721 C238.207823,75.4021868 239.132513,72.3156661 241.172269,71.2777211 C242.559304,72.1790944 243.4296,73.4901828 244.463076,74.5008135 C248.189032,72.861953 246.502833,72.0425227 248.896147,71.1957781 C249.902427,71.987894 250.55515,73.899898 251.969381,74.3915561 C253.356415,73.6813832 254.063531,71.8513223 255.423369,71.2230924 C257.517519,72.5888095 256.592829,74.937843 258.986143,74.5554422 C259.258111,72.8892673 257.109567,69.4476601 255.640943,68.7921159 C254.090728,69.4476601 253.601186,71.1957781 251.969381,72.2064087 C249.848034,70.2944048 249.79364,68.8467446 248.379409,69.2291454 C247.182752,69.5569175 246.339653,71.9332653 244.680651,72.5341808 L242.042565,69.8300609 C239.948415,68.2458291 239.40448,71.4962358 236.929575,72.943896 C236.38564,72.0425227 233.801949,68.4643438 233.067636,68 L233.067636,68 Z" id="Wave-1" fill="#EBBA00"></path>
            <path d="M180.682045,146.534333 C180.518864,149.047252 181.171586,149.019938 181.062799,150.822684 L181.22598,161.17482 C181.035602,162.868309 181.035602,165.026142 181.30757,166.856203 C182.39544,166.910832 182.504227,166.419174 182.558621,165.299286 C182.585817,161.502592 182.368243,156.913783 182.585817,153.253661 C182.776195,150.221769 182.041882,149.375024 182.341047,146.780162 L189.52099,146.561647 C190.826434,146.670904 190.173712,147.544963 192.376649,147.025991 C192.050288,145.469073 189.493793,141.808951 188.351529,140.279348 L186.937298,138.148829 C188.351529,137.984943 189.4394,138.148829 190.336893,137.547914 C190.146515,136.346083 185.686247,130.22767 184.543984,128.807324 C182.939375,126.813377 181.742718,124.518973 180.899619,124 C179.675765,124.655544 177.11927,130.41887 176.085793,132.085045 C174.889136,133.833163 175.596252,133.478077 174.834742,134.516022 C174.209217,135.390081 172.495822,137.438656 172.604609,138.421973 C173.366118,138.886317 174.209217,138.940945 175.324284,139.022888 C174.916333,140.006205 174.01884,141.016835 173.202937,141.808951 C172.305444,142.68301 171.489542,142.846896 171,144.076042 C172.223854,145.19593 173.991643,142.764953 174.698759,142.05478 C175.677842,141.071464 177.20086,139.678433 177.826385,138.558545 C176.874499,136.591912 175.079513,138.230772 174.916333,137.110884 C176.27617,135.417395 178.179943,131.620702 179.539781,129.435554 C180.056519,128.58881 180.464471,127.578179 180.790832,126.731434 C181.769915,127.305035 181.851505,128.233723 183.32013,129.845269 L187.970775,136.428026 C187.970775,136.810427 186.964495,136.783112 186.230183,136.755798 C182.939375,136.591912 185.686247,139.651118 185.740641,139.733061 C186.474953,140.771006 186.910101,141.453865 187.617217,142.273295 C188.106759,142.819582 188.841071,143.830213 189.221826,144.7589 C183.619294,145.906103 180.546061,143.693641 175.133907,144.922786 C172.903773,145.414444 171.815903,144.840843 171.843099,146.561647 C172.686199,147.025991 179.21342,146.561647 180.682045,146.534333 L180.682045,146.534333 Z" id="Tree-5" fill="#EBBA00"></path>
            <path d="M250.039643,230.895472 C244.491505,231.851474 239.67768,231.960731 234.075148,231.687588 C234.510296,230.157985 237.229972,227.617751 238.263449,226.060833 C239.487302,224.258087 240.330402,223.657171 240.439189,222.919684 C239.460106,222.127568 234.265526,223.547914 233.232049,224.421973 C233.884771,225.623804 234.156739,224.53123 237.637923,224.34003 C235.978921,227.399236 233.694394,229.010782 232.035392,231.796845 C230.974718,235.156509 254.119156,232.971362 252.541745,231.059358 C251.834629,229.802898 247.646329,225.022888 246.177704,223.384028 C247.591935,222.783112 248.870183,222.919684 250.039643,221.936368 C249.604495,220.789165 243.077274,210.737487 241.663043,210 C240.004041,211.065259 233.286442,221.772482 233.340836,223.493285 C236.386872,223.438656 238.263449,213.905951 241.527059,211.529603 C242.995684,212.868006 243.267651,214.288352 244.110751,215.380925 C245.443392,217.074415 246.96641,219.723906 248.271854,221.663224 C245.715359,222.537283 244.87226,220.652594 243.757193,223.411342 C245.606572,225.78769 247.782313,227.781637 250.039643,230.895472 L250.039643,230.895472 Z M242.642126,251.654372 C242.533339,242.476753 243.131668,234.692166 240.76555,235.293081 C241.173501,238.652745 240.439189,251.845573 242.642126,251.654372 L242.642126,251.654372 Z" id="Tree-4" fill="#EBBA00"></path>
            <path d="M12.4017201,133.813377 C16.290856,140.013733 18.0858418,147.170091 22.9540609,153.397761 C16.2636593,153.20656 9.02932253,153.588961 2.42051116,154.708849 C3.01883976,152.769531 12.1025558,134.004578 12.4017201,133.813377 L12.4017201,133.813377 Z M14.4414767,155.309765 C16.9435781,155.473651 23.497996,155.173193 25.5649493,154.790792 C22.6276998,149.628382 15.9372982,136.817955 12.2657363,131 C10.5523408,131.273143 0,155.063936 0,155.09125 C0.435148074,157.822684 9.43727385,155.118564 12.5105071,155.200507 C12.6464909,156.866682 12.9456552,173.391859 13.2720163,173.719632 C13.6255741,174.074718 13.9519351,174.156661 14.3054929,173.910832 C15.2845761,173.337231 14.631854,157.276397 14.4414767,155.309765 L14.4414767,155.309765 Z" id="Tree-3" fill="#EBBA00"></path>
            <path d="M54.9552725,20.4830549 C54.900879,18.980766 53.7042218,19.6363103 52.2627938,19.0080804 C52.8611224,16.822933 55.336027,12.1794948 56.559881,8.95640237 C56.9678323,9.14760276 62.4887735,17.3965342 62.9511183,18.6256796 C62.43438,19.0080804 60.5306072,19.8821393 60.1498526,20.4830549 C61.1289358,21.4663712 65.2356457,25.836666 65.6164003,26.6834106 C61.7816579,27.4755265 54.6833049,27.4208978 50.8213658,27.5847839 C51.3381041,25.1264931 54.3569439,22.3404302 54.9552725,20.4830549 L54.9552725,20.4830549 Z M57.4573739,28.8412437 C57.783735,31.7911926 56.8862421,46.2131654 59.2523597,46.2677941 C60.3674266,44.5743049 58.8172116,32.3374795 59.2795565,29.3329018 C62.0536254,28.868558 65.0180717,29.1690158 67.6561569,28.0764421 C69.4783394,27.2570118 63.2774794,21.1932278 62.5703638,20.4830549 C63.3318729,19.5543672 65.208449,19.7182533 64.6645139,18.4891079 C63.5766437,16.7956186 57.8381285,6.52542589 56.559881,7.01708405 C55.1456498,7.53605656 52.5347613,14.6924143 51.3109074,16.7683043 C49.5431183,19.8275107 49.0535767,20.4830549 52.7251386,20.810827 C52.3987775,22.4223732 51.1205301,23.5149469 50.3318242,24.880664 C46.2795078,31.7638783 52.2899905,29.1417014 57.4573739,28.8412437 L57.4573739,28.8412437 Z" id="Tree-2" fill="#EBBA00"></path>
            <path d="M159.857458,14.1776191 C161.543657,11.8012713 163.393036,9.94389598 164.834464,7.37634779 C165.78635,7.67680556 166.058318,8.00457767 166.62945,8.76937926 C166.983007,9.23372308 166.928614,9.17909439 167.227778,9.64343821 L168.614813,11.6920139 C169.457912,12.9484736 170.056241,13.2216171 170.301012,13.93179 C169.539502,14.2049334 166.520663,14.4234481 168.424435,16.089623 C170.301012,17.7284836 169.131551,16.881739 170.355405,18.5479138 C170.654569,18.957629 171.198504,19.4492871 171.008127,19.9409453 C166.683843,20.7330612 162.849101,19.3946585 158.524817,21.2520337 C158.959965,19.3127154 161.897214,17.1002537 161.897214,15.7072222 C161.897214,14.4780768 160.754951,14.887792 159.857458,14.1776191 L159.857458,14.1776191 Z M164.154545,21.8802636 C164.61689,24.7482696 164.208938,31.6041695 164.344922,35.7832639 C164.426513,37.7225822 163.229855,43.1581364 165.242415,43.4312798 C166.275892,41.7924193 165.840744,25.8408433 165.650366,21.7710063 C165.650366,21.7710063 173.754999,21.5798059 174.679689,22.0441497 C174.434918,19.9682597 171.062521,17.7831123 170.491389,15.3794501 C171.416078,15.2155641 171.715243,15.2975071 172.313571,14.8331633 C172.503949,13.3581888 166.112711,5.51897251 164.344922,5 C162.713117,7.86800596 160.999721,11.1730414 158.171259,14.2322477 C157.32816,15.9530513 159.095949,15.6799079 160.020638,15.7618509 C159.639884,18.3840278 156.920208,19.2034581 157.001799,21.3066624 C157.219373,22.5358078 159.150342,22.5631222 160.42859,22.4538648 C162.114788,22.2899788 162.821904,21.7710063 164.154545,21.8802636 L164.154545,21.8802636 Z" id="Tree-1" fill="#EBBA00"></path>
            <path d="M101.281965,205.742669 C97.0502043,206.234161 91.4806611,206.452602 86.4571514,205.988415 C88.5320793,200.718528 95.0571815,189.386905 97.7600481,182.888288 C99.5346574,184.44468 101.391172,202.984852 101.281965,205.742669 L101.281965,205.742669 Z M93.2552704,171.147089 C94.1289243,173.741075 98.3333834,178.055283 97.1321094,180.731184 C96.5041707,182.20566 84.0273017,206.671043 84,206.971399 C86.2933413,208.882757 98.2241767,207.599417 102.401334,207.599417 C104.203245,206.780263 100.271803,186.90214 99.8895793,184.117018 C100.026088,184.253544 104.230547,192.93657 104.776581,194.05608 C105.295312,195.120979 105.650234,195.503251 106.114363,196.431625 C106.933413,198.233762 110.346124,205.005431 110.864856,206.671043 C111.465493,206.534517 111.875018,206.479907 112.366448,206.12494 C112.339147,206.01572 108.899135,198.261067 108.544213,197.387304 L99.916881,180.895015 C99.4527524,179.69359 99.5346574,179.666285 100.080691,178.546775 C100.572121,177.45457 103.193083,172.921921 102.319429,172.102768 C100.735931,171.31092 100.162596,175.242856 98.7429086,177.727621 C97.3505228,175.324771 95.3028966,170.054884 93.2552704,171.147089 L93.2552704,171.147089 Z" id="Tipi-1" fill="#EBBA00"></path>
        </g>
    </g>
</svg>