<?xml version="1.0" encoding="UTF-8" standalone="no"?>
<svg width="265px" height="258px" viewBox="0 0 265 258" version="1.1" xmlns="http://www.w3.org/2000/svg" xmlns:xlink="http://www.w3.org/1999/xlink">
    <!-- Generator: Sketch 41 (35326) - http://www.bohemiancoding.com/sketch -->
    <title>Pattern 3</title>
    <desc>Created with Sketch.</desc>
    <defs></defs>
    <g id="Business-Plan" stroke="none" stroke-width="1" fill="none" fill-rule="evenodd">
        <g id="Pattern-3">
            <rect id="Background" fill="#F9F9F9" x="0" y="0" width="265" height="258"></rect>
            <path d="M17.5104986,159.146283 C16.9665635,159.938399 10.4393424,164.691095 10.928884,164.827666 C11.6359996,166.329955 14.3828718,163.84435 15.1987744,163.134177 C19.9854033,158.955083 18.571172,159.555998 22.6234885,162.424004 C23.6841619,163.188806 25.0439996,164.117493 26.3494438,164.144808 L26.8661822,163.352692 C25.0711964,161.76846 22.3243242,160.266171 20.5021416,158.599996 C22.677882,156.223648 25.3431639,154.338959 27.4917075,152.563527 C28.3892004,151.361695 29.0147258,151.38901 27.4917075,150.159864 C25.5335412,152.345012 20.4205513,156.633364 18.9519266,157.835195 C16.7761862,155.950505 12.9686406,153.683415 10.5481294,151.935297 C7.80125718,154.175073 16.2050544,157.234279 17.5104986,159.146283 Z M17.1025473,133.224972 C16.2594479,133.634687 11.8807704,145.106711 12.3159185,145.816884 C12.5062957,146.199285 18.9519266,151.853354 19.2238941,151.880668 C19.5502552,151.907982 26.8933789,145.680312 25.9686893,142.539163 C25.4247542,140.763731 21.1548637,139.288756 19.686239,138.93367 C19.4414682,137.704524 17.7280726,133.935145 17.1025473,133.224972 Z M24.228097,142.347962 C24.6088515,145.079397 20.230174,149.340434 19.2782876,149.859407 C18.4079915,149.121919 14.138101,145.625684 13.7029529,145.188654 C14.1109043,143.495165 15.8786933,138.059611 16.7489895,136.693894 C17.4017116,138.387383 18.1088272,138.960984 18.5167785,140.080872 C19.903813,140.681788 22.4875047,141.747047 24.228097,142.347962 Z M22.1883404,128.171819 C21.562815,128.608848 20.0941903,129.674108 20.6109286,130.493538 C21.671602,132.26897 22.1067501,131.859255 23.0314398,130.575481 C22.9226528,130.00188 22.4603079,128.499591 22.1883404,128.171819 Z M16.6673992,124.129296 C13.0502308,121.206661 13.6485594,124.675583 15.0355939,126.451015 C16.0418738,126.177872 16.4226284,125.139927 16.6673992,124.129296 Z" id="Fire-1" fill="#EBBA00"></path>
            <path d="M233.067636,68 C231.517421,68.4370295 228.770549,73.1350964 229.01532,74.6100709 C230.810306,74.8012713 230.946289,72.3429804 232.550898,70.1578331 C234.264293,70.6768056 235.923296,75.019786 237.011166,75.1836721 C238.207823,75.4021868 239.132513,72.3156661 241.172269,71.2777211 C242.559304,72.1790944 243.4296,73.4901828 244.463076,74.5008135 C248.189032,72.861953 246.502833,72.0425227 248.896147,71.1957781 C249.902427,71.987894 250.55515,73.899898 251.969381,74.3915561 C253.356415,73.6813832 254.063531,71.8513223 255.423369,71.2230924 C257.517519,72.5888095 256.592829,74.937843 258.986143,74.5554422 C259.258111,72.8892673 257.109567,69.4476601 255.640943,68.7921159 C254.090728,69.4476601 253.601186,71.1957781 251.969381,72.2064087 C249.848034,70.2944048 249.79364,68.8467446 248.379409,69.2291454 C247.182752,69.5569175 246.339653,71.9332653 244.680651,72.5341808 L242.042565,69.8300609 C239.948415,68.2458291 239.40448,71.4962358 236.929575,72.943896 C236.38564,72.0425227 233.801949,68.4643438 233.067636,68 L233.067636,68 Z" id="Wave-2" fill="#EBBA00"></path>
            <path d="M89.8703807,96.1452368 C89.8157774,96.1725419 84.4646476,102.316193 87.0310057,102.998821 L90.3891127,97.9473744 C94.0202365,98.9303585 93.9383314,101.387819 96.1497677,101.824701 C97.4329468,100.759801 98.9618411,98.3569511 100.217718,97.9200693 C103.49392,102.343498 103.958049,101.852006 108.954257,97.1009158 C111.247598,98.1385102 112.121252,101.305903 114.141577,101.360514 L117.581589,96.9370851 C118.673656,97.6470181 119.05588,98.0838999 120.147947,99.5856812 C120.939696,100.677886 121.731444,101.688175 123.233037,101.633565 C123.669864,100.213699 119.929533,96.1725419 119.246991,95.8175754 C115.233644,93.7423868 116.871745,97.4831874 113.650146,99.0395789 C112.776492,98.5207818 111.957442,97.4558823 111.220297,96.664034 C107.725681,92.6774873 106.524407,98.2204255 103.521222,99.2307147 C102.456456,98.1385102 101.391691,95.8175754 99.398668,96.0906266 C98.3885057,96.2271522 98.3066007,97.1282209 97.6513603,97.9473744 C97.1326283,98.575392 96.5046896,99.1487994 96.0132593,99.6949017 C94.0202365,98.5480869 92.1637221,95.8448806 89.8703807,96.1452368 L89.8703807,96.1452368 Z" id="Wave-1" fill="#EBBA00"></path>
            <path d="M250.039643,230.895472 C244.491505,231.851474 239.67768,231.960731 234.075148,231.687588 C234.510296,230.157985 237.229972,227.617751 238.263449,226.060833 C239.487302,224.258087 240.330402,223.657171 240.439189,222.919684 C239.460106,222.127568 234.265526,223.547914 233.232049,224.421973 C233.884771,225.623804 234.156739,224.53123 237.637923,224.34003 C235.978921,227.399236 233.694394,229.010782 232.035392,231.796845 C230.974718,235.156509 254.119156,232.971362 252.541745,231.059358 C251.834629,229.802898 247.646329,225.022888 246.177704,223.384028 C247.591935,222.783112 248.870183,222.919684 250.039643,221.936368 C249.604495,220.789165 243.077274,210.737487 241.663043,210 C240.004041,211.065259 233.286442,221.772482 233.340836,223.493285 C236.386872,223.438656 238.263449,213.905951 241.527059,211.529603 C242.995684,212.868006 243.267651,214.288352 244.110751,215.380925 C245.443392,217.074415 246.96641,219.723906 248.271854,221.663224 C245.715359,222.537283 244.87226,220.652594 243.757193,223.411342 C245.606572,225.78769 247.782313,227.781637 250.039643,230.895472 L250.039643,230.895472 Z M242.642126,251.654372 C242.533339,242.476753 243.131668,234.692166 240.76555,235.293081 C241.173501,238.652745 240.439189,251.845573 242.642126,251.654372 L242.642126,251.654372 Z" id="Tree-4" fill="#EBBA00"></path>
            <path d="M175.039643,27.895472 C169.491505,28.8514739 164.67768,28.9607313 159.075148,28.6875879 C159.510296,27.1579847 162.229972,24.6177509 163.263449,23.0608333 C164.487302,21.2580867 165.330402,20.6571712 165.439189,19.919684 C164.460106,19.127568 159.265526,20.5479138 158.232049,21.4219728 C158.884771,22.6238039 159.156739,21.5312302 162.637923,21.3400298 C160.978921,24.3992361 158.694394,26.0107823 157.035392,28.7968453 C155.974718,32.1565094 179.119156,29.971362 177.541745,28.059358 C176.834629,26.8028983 172.646329,22.0228883 171.177704,20.3840278 C172.591935,19.7831123 173.870183,19.919684 175.039643,18.9363676 C174.604495,17.7891653 168.077274,7.73748725 166.663043,7 C165.004041,8.06525935 158.286442,18.7724816 158.340836,20.4932852 C161.386872,20.4386565 163.263449,10.905951 166.527059,8.52960318 C167.995684,9.86800596 168.267651,11.2883518 169.110751,12.3809255 C170.443392,14.0744147 171.96641,16.7239059 173.271854,18.6632242 C170.715359,19.5372832 169.87226,17.6525935 168.757193,20.4113421 C170.606572,22.7876899 172.782313,24.7816369 175.039643,27.895472 L175.039643,27.895472 Z M167.642126,48.6543722 C167.533339,39.4767531 168.131668,31.6921656 165.76555,32.2930811 C166.173501,35.6527452 165.439189,48.8455726 167.642126,48.6543722 L167.642126,48.6543722 Z" id="Tree-3" fill="#EBBA00"></path>
            <path d="M55.4017201,8.81337727 C59.290856,15.013733 61.0858418,22.1700907 65.9540609,28.3977608 C59.2636593,28.2065604 52.0293225,28.5889612 45.4205112,29.7088492 C46.0188398,27.7695309 55.1025558,9.00457767 55.4017201,8.81337727 L55.4017201,8.81337727 Z M57.4414767,30.3097648 C59.9435781,30.4736508 66.497996,30.1731931 68.5649493,29.7907923 C65.6276998,24.6283815 58.9372982,11.8179549 55.2657363,6 C53.5523408,6.27314342 43,30.0639357 43,30.09125 C43.4351481,32.8226843 52.4372739,30.1185644 55.5105071,30.2005074 C55.6464909,31.8666823 55.9456552,48.3918595 56.2720163,48.7196316 C56.6255741,49.074718 56.9519351,49.156661 57.3054929,48.910832 C58.2845761,48.3372308 57.631854,32.2763974 57.4414767,30.3097648 L57.4414767,30.3097648 Z" id="Tree-2" fill="#EBBA00"></path>
            <path d="M92.8574577,185.177619 C94.5436565,182.801271 96.3930358,180.943896 97.8344638,178.376348 C98.7863503,178.676806 99.0583178,179.004578 99.6294496,179.769379 C99.9830075,180.233723 99.9286139,180.179094 100.227778,180.643438 L101.614813,182.692014 C102.457912,183.948474 103.056241,184.221617 103.301012,184.93179 C102.539502,185.204933 99.5206626,185.423448 101.424435,187.089623 C103.301012,188.728484 102.131551,187.881739 103.355405,189.547914 C103.654569,189.957629 104.198504,190.449287 104.008127,190.940945 C99.6838432,191.733061 95.8491008,190.394658 91.5248168,192.252034 C91.9599648,190.312715 94.8972143,188.100254 94.8972143,186.707222 C94.8972143,185.478077 93.7549507,185.887792 92.8574577,185.177619 L92.8574577,185.177619 Z M97.154545,192.880264 C97.6168898,195.74827 97.2089385,202.60417 97.3449223,206.783264 C97.4265125,208.722582 96.2298553,214.158136 98.2424152,214.43128 C99.2758918,212.792419 98.8407438,196.840843 98.6503665,192.771006 C98.6503665,192.771006 106.754999,192.579806 107.679689,193.04415 C107.434918,190.96826 104.062521,188.783112 103.491389,186.37945 C104.416078,186.215564 104.715243,186.297507 105.313571,185.833163 C105.503949,184.358189 99.1127113,176.518973 97.3449223,176 C95.713117,178.868006 93.9997214,182.173041 91.171259,185.232248 C90.3281596,186.953051 92.0959486,186.679908 93.0206383,186.761851 C92.6398837,189.384028 89.9202083,190.203458 90.0017985,192.306662 C90.2193726,193.535808 92.1503421,193.563122 93.4285896,193.453865 C95.1147884,193.289979 95.821904,192.771006 97.154545,192.880264 L97.154545,192.880264 Z" id="Tree-1" fill="#EBBA00"></path>
            <path d="M183.486775,138.50571 C183.841696,145.004327 185.152177,152.840895 186.571865,161.605837 C183.350266,161.032429 175.023253,161.878888 171.255621,161.824277 C171.337526,160.813988 183.459473,138.50571 183.486775,138.50571 L183.486775,138.50571 Z M184.851859,136.621657 C186.517261,142.273816 189.110921,144.949717 190.749022,148.827043 C192.141408,152.103657 200.331913,168.51403 199.403656,161.687752 C199.212544,160.377106 187.718535,138.66954 186.271546,135.884419 C184.38773,132.198228 190.694419,129.495022 189.766162,126.382239 C187.855044,126.491459 185.725513,130.641837 184.169317,132.116313 C183.541378,130.805668 181.411847,126.54607 179.691841,127.692884 C180.6474,130.505311 183.241059,133.645399 183.322964,134.300722 C183.486775,136.020944 170.928001,158.083477 169.098788,160.923209 C165.767983,165.182806 187.63663,163.517195 188.237267,163.025702 C189.465843,162.015413 183.841696,137.795777 184.851859,136.621657 L184.851859,136.621657 Z" id="Tipi-1" fill="#EBBA00"></path>
        </g>
    </g>
</svg>